<svg width="185" height="33" viewBox="0 0 185 33" fill="none" xmlns="http://www.w3.org/2000/svg">
<g clip-path="url(#clip0_2_451)">
<path d="M65.3029 17.896C64.0399 19.9449 62.2436 21.1237 59.9141 21.1237C56.5462 21.1237 54.0763 18.4012 54.0763 14.8929C54.0763 11.3846 56.4339 8.69021 59.9703 8.69021C62.2156 8.69021 64.2363 9.95319 65.2467 11.8617L68.5024 9.2796C66.8465 6.33263 63.8434 4.56445 60.0264 4.56445C53.9079 4.56445 49.6138 9.1112 49.6138 14.8929C49.6138 20.6746 53.9921 25.2494 59.9703 25.2494C63.7312 25.2494 66.8746 23.2567 68.5866 20.422L65.3029 17.896Z" fill="white"/>
<path d="M77.5021 10.1777C73.0115 10.1777 69.7838 13.4335 69.7838 17.6996C69.7838 21.9376 73.0115 25.2494 77.5021 25.2494C81.9927 25.2494 85.2203 21.9376 85.2203 17.6996C85.2203 13.4335 81.9927 10.1777 77.5021 10.1777ZM77.5021 13.9667C79.4387 13.9667 80.8981 15.4543 80.8981 17.6996C80.8981 19.9449 79.4387 21.4605 77.5021 21.4605C75.5655 21.4605 74.1061 19.9449 74.1061 17.6996C74.1061 15.4543 75.5655 13.9667 77.5021 13.9667Z" fill="white"/>
<path d="M88.0088 10.5145V24.9126H92.2749V17.4189C92.2749 15.5385 93.2572 13.9387 95.0534 13.9387C96.6252 13.9387 97.6355 14.921 97.6355 16.8014V24.9126H101.902V17.4189C101.902 15.5385 102.884 13.9387 104.68 13.9387C106.252 13.9387 107.234 14.921 107.234 16.8014V24.9126H111.5V16.1559C111.5 12.423 109.395 10.1777 105.943 10.1777C103.501 10.1777 102.126 11.2443 101.088 12.7037C100.105 11.1039 98.5337 10.1777 96.3164 10.1777C94.436 10.1777 93.0327 10.9075 92.1065 12.3669V10.5145H88.0088Z" fill="white"/>
<path d="M122.693 13.9387C124.517 13.9387 126.033 15.4262 126.033 17.7557C126.033 20.001 124.517 21.4885 122.693 21.4885C120.785 21.4885 119.297 20.0291 119.297 17.7557C119.297 15.3981 120.785 13.9387 122.693 13.9387ZM119.101 10.5145H115.143V30.5259H119.409V23.3409C120.307 24.6881 122.02 25.2494 123.563 25.2494C127.492 25.2494 130.327 21.9937 130.327 17.6996C130.327 13.2651 127.268 10.1777 123.591 10.1777C122.188 10.1777 120.223 10.7671 119.101 12.5072V10.5145Z" fill="white"/>
<path d="M140.589 15.9594L136.66 16.7172C133.628 17.3628 131.973 18.8222 131.973 20.9553C131.973 23.4532 133.937 25.2494 136.744 25.2494C138.652 25.2494 140.056 24.4074 140.729 23.1444V24.9126H144.687V15.8472C144.687 12.3388 142.301 10.1777 138.287 10.1777C135.593 10.1777 133.432 11.3004 132.113 12.9002L134.33 15.5946C135.2 14.6123 136.435 13.8545 138.035 13.8545C139.494 13.8545 140.589 14.4158 140.589 15.8472V15.9594ZM137.698 22.0779C136.688 22.0779 136.042 21.5166 136.042 20.7027C136.042 19.9168 136.604 19.4116 137.754 19.2151L140.617 18.6538V19.0748C140.617 20.7869 139.466 22.0779 137.698 22.0779Z" fill="white"/>
<path d="M148.28 10.5145V24.9126H152.546V17.4189C152.546 15.5385 153.529 13.9387 155.381 13.9387C156.953 13.9387 157.963 14.921 157.963 16.8014V24.9126H162.229V16.1559C162.229 12.423 160.096 10.1777 156.644 10.1777C154.707 10.1777 153.304 10.9075 152.378 12.3669V10.5145H148.28Z" fill="white"/>
<path d="M169.195 24.3794L169.027 24.8565C168.409 26.9053 167.371 27.2702 166.248 27.2702C165.771 27.2702 165.041 27.2141 164.283 26.7931V30.3294C164.929 30.6382 165.855 30.8627 166.865 30.8627C169.588 30.8627 171.328 29.5716 172.759 26.0914L179.046 10.5145H174.696L171.328 19.9449L167.988 10.5145H163.526L169.195 24.3794Z" fill="white"/>
<path d="M24.2098 2.61487H19.7308C19.263 2.61487 18.8838 2.99408 18.8838 3.46186V27.309C18.8838 27.7768 19.263 28.156 19.7308 28.156H24.2098C24.6776 28.156 25.0568 27.7768 25.0568 27.309V3.46186C25.0568 2.99408 24.6776 2.61487 24.2098 2.61487Z" fill="white"/>
<path d="M33.339 28.1558C36.237 28.1558 38.5863 25.8065 38.5863 22.9086C38.5863 20.0106 36.237 17.6613 33.339 17.6613C30.4411 17.6613 28.0918 20.0106 28.0918 22.9086C28.0918 25.8065 30.4411 28.1558 33.339 28.1558Z" fill="#0328EE"/>
<path d="M33.339 13.1094C36.237 13.1094 38.5863 10.7601 38.5863 7.86211C38.5863 4.96414 36.237 2.61487 33.339 2.61487C30.4411 2.61487 28.0918 4.96414 28.0918 7.86211C28.0918 10.7601 30.4411 13.1094 33.339 13.1094Z" fill="#0328EE"/>
<path d="M10.6017 28.1558C13.4997 28.1558 15.849 25.8065 15.849 22.9086C15.849 20.0106 13.4997 17.6613 10.6017 17.6613C7.70376 17.6613 5.35449 20.0106 5.35449 22.9086C5.35449 25.8065 7.70376 28.1558 10.6017 28.1558Z" fill="#0328EE"/>
</g>
<defs>
<clipPath id="clip0_2_451">
<rect width="175" height="29" fill="white" transform="translate(5 2.53125)"/>
</clipPath>
</defs>
</svg>
