<svg width="184" height="33" viewBox="0 0 184 33" fill="none" xmlns="http://www.w3.org/2000/svg">
<g clip-path="url(#clip0_2_465)">
<path d="M25.6021 14.775C21.8417 14.775 18.7892 11.7341 18.7892 7.9969C18.7892 7.50943 18.8473 7.04518 18.9401 6.58093H9.88721C6.38211 6.58093 3.53857 9.41286 3.53857 12.8948V24.5591C3.53857 28.0526 6.38211 30.8729 9.88721 30.8729H21.6096C25.1263 30.8729 27.9582 28.041 27.9582 24.5591V14.3456C27.2386 14.6125 26.4378 14.775 25.6021 14.775Z" fill="#0328EE"/>
<path d="M27.9691 24.5591V14.3456C27.2379 14.6125 26.437 14.775 25.613 14.775C21.8525 14.775 18.8001 11.7341 18.8001 7.9969C18.8001 7.50943 18.8581 7.04518 18.951 6.58093H9.89807C6.41619 6.58093 3.59586 9.36644 3.54944 12.8252C11.906 16.2722 20.4946 20.4621 27.9226 25.3599C27.9458 25.093 27.9691 24.826 27.9691 24.5591Z" fill="#0328EE"/>
<path d="M26.1236 12.4338C28.8511 12.4338 31.0563 10.2402 31.0563 7.52432C31.0563 4.82006 28.8511 2.61487 26.1236 2.61487C23.3961 2.61487 21.1909 4.80845 21.1909 7.52432C21.1909 10.2286 23.3961 12.4338 26.1236 12.4338Z" fill="white"/>
<path d="M56.0088 18.6789C55.8147 19.5039 55.4871 20.3047 55.026 21.0813C54.565 21.8336 53.9947 22.513 53.3152 23.1197C52.6357 23.7021 51.8592 24.1753 50.9856 24.5393C50.112 24.8791 49.1777 25.0489 48.1828 25.0489C47.0422 25.0489 45.9623 24.8305 44.9431 24.3937C43.9482 23.9326 43.0624 23.3138 42.2859 22.5373C41.5336 21.7608 40.927 20.8629 40.4659 19.8437C40.0291 18.8002 39.8107 17.6839 39.8107 16.4948C39.8107 15.3058 40.0291 14.2016 40.4659 13.1824C40.927 12.139 41.5336 11.229 42.2859 10.4524C43.0624 9.67588 43.9482 9.06921 44.9431 8.6324C45.9623 8.17133 47.0422 7.9408 48.1828 7.9408C49.1777 7.9408 50.112 8.1228 50.9856 8.4868C51.8592 8.82654 52.6357 9.29974 53.3152 9.90642C53.9947 10.4888 54.565 11.1683 55.026 11.9448C55.4871 12.6971 55.8147 13.4857 56.0088 14.3108H51.8228C51.6287 13.874 51.3617 13.4857 51.022 13.146C50.7308 12.8548 50.3547 12.5879 49.8936 12.3452C49.4325 12.0783 48.8622 11.9448 48.1828 11.9448C46.9937 11.9448 45.9987 12.3574 45.1979 13.1824C44.3971 14.0075 43.9967 15.1116 43.9967 16.4948C43.9967 17.878 44.3971 18.9822 45.1979 19.8073C45.9987 20.6323 46.9937 21.0449 48.1828 21.0449C48.8622 21.0449 49.4325 20.9235 49.8936 20.6809C50.3547 20.4382 50.7308 20.1713 51.022 19.8801C51.3617 19.5403 51.6287 19.1399 51.8228 18.6789H56.0088Z" fill="white"/>
<path d="M62.9249 16.4948C62.9249 17.878 63.3253 18.9822 64.1261 19.8073C64.9269 20.6323 65.9219 21.0449 67.111 21.0449C68.3 21.0449 69.295 20.6323 70.0958 19.8073C70.8966 18.9822 71.297 17.878 71.297 16.4948C71.297 15.1116 70.8966 14.0075 70.0958 13.1824C69.295 12.3574 68.3 11.9448 67.111 11.9448C65.9219 11.9448 64.9269 12.3574 64.1261 13.1824C63.3253 14.0075 62.9249 15.1116 62.9249 16.4948ZM75.483 16.4948C75.483 17.6839 75.2525 18.8002 74.7914 19.8437C74.3546 20.8629 73.748 21.7608 72.9714 22.5373C72.2191 23.3138 71.3334 23.9326 70.3142 24.3937C69.3192 24.8305 68.2515 25.0489 67.111 25.0489C65.9704 25.0489 64.8905 24.8305 63.8713 24.3937C62.8764 23.9326 61.9906 23.3138 61.2141 22.5373C60.4618 21.7608 59.8551 20.8629 59.3941 19.8437C58.9573 18.8002 58.7389 17.6839 58.7389 16.4948C58.7389 15.3058 58.9573 14.2016 59.3941 13.1824C59.8551 12.139 60.4618 11.229 61.2141 10.4524C61.9906 9.67588 62.8764 9.06921 63.8713 8.6324C64.8905 8.17133 65.9704 7.9408 67.111 7.9408C68.2515 7.9408 69.3192 8.17133 70.3142 8.6324C71.3334 9.06921 72.2191 9.67588 72.9714 10.4524C73.748 11.229 74.3546 12.139 74.7914 13.1824C75.2525 14.2016 75.483 15.3058 75.483 16.4948Z" fill="white"/>
<path d="M87.1141 7.9408C87.9634 7.9408 88.6914 8.06213 89.2981 8.3048C89.9048 8.5232 90.4023 8.76587 90.7905 9.03281C91.2273 9.34828 91.5792 9.71228 91.8461 10.1248C92.2344 9.71228 92.6833 9.34828 93.193 9.03281C93.6298 8.76587 94.1515 8.5232 94.7582 8.3048C95.3648 8.06213 96.0322 7.9408 96.7602 7.9408C98.5802 7.9408 100.036 8.5232 101.128 9.68801C102.22 10.8528 102.766 12.5757 102.766 14.8568V24.8669H98.5802V15.2208C98.5802 14.2016 98.3011 13.4008 97.743 12.8184C97.2091 12.236 96.5782 11.9448 95.8502 11.9448C95.1222 11.9448 94.4791 12.236 93.921 12.8184C93.3871 13.4008 93.1202 14.2016 93.1202 15.2208V24.8669H88.9341V15.2208C88.9341 14.2016 88.655 13.4008 88.0969 12.8184C87.563 12.236 86.9321 11.9448 86.2041 11.9448C85.4761 11.9448 84.833 12.236 84.2749 12.8184C83.741 13.4008 83.4741 14.2016 83.4741 15.2208V24.8669H79.288V8.1228H82.382L83.1101 9.76081C83.4498 9.42108 83.8259 9.11774 84.2385 8.8508C84.5782 8.6324 84.9907 8.42613 85.4761 8.232C85.9614 8.03786 86.5074 7.9408 87.1141 7.9408Z" fill="white"/>
<path d="M115.87 7.9408C116.914 7.9408 117.909 8.1592 118.855 8.596C119.801 9.00854 120.626 9.60308 121.33 10.3796C122.058 11.1319 122.629 12.0298 123.041 13.0732C123.478 14.1167 123.696 15.2572 123.696 16.4948C123.696 17.7324 123.478 18.873 123.041 19.9165C122.629 20.9599 122.058 21.87 121.33 22.6465C120.626 23.3988 119.801 23.9933 118.855 24.4301C117.909 24.8427 116.914 25.0489 115.87 25.0489C115.166 25.0489 114.548 24.964 114.014 24.7941C113.504 24.6243 113.055 24.4422 112.667 24.2481C112.23 24.0054 111.842 23.7264 111.502 23.4109V30.691H107.316V8.1228H110.41L111.138 9.76081C111.502 9.42108 111.927 9.11774 112.412 8.8508C112.825 8.6324 113.322 8.42613 113.905 8.232C114.487 8.03786 115.142 7.9408 115.87 7.9408ZM111.138 16.4948C111.138 17.878 111.539 18.9822 112.339 19.8073C113.14 20.6323 114.135 21.0449 115.324 21.0449C116.513 21.0449 117.508 20.6323 118.309 19.8073C119.11 18.9822 119.51 17.878 119.51 16.4948C119.51 15.1116 119.11 14.0075 118.309 13.1824C117.508 12.3574 116.513 11.9448 115.324 11.9448C114.135 11.9448 113.14 12.3574 112.339 13.1824C111.539 14.0075 111.138 15.1116 111.138 16.4948Z" fill="white"/>
<path d="M134.44 7.9408C135.386 7.9408 136.26 8.11066 137.061 8.4504C137.862 8.76587 138.553 9.21481 139.136 9.79721C139.718 10.3796 140.167 11.0712 140.483 11.872C140.822 12.6728 140.992 13.5464 140.992 14.4928V24.8669H137.898L137.17 23.2289C136.782 23.5686 136.357 23.872 135.896 24.1389C135.484 24.3816 134.986 24.6 134.404 24.7941C133.821 24.964 133.166 25.0489 132.438 25.0489C130.618 25.0489 129.223 24.6121 128.252 23.7385C127.281 22.8406 126.796 21.7001 126.796 20.3169C126.796 19.4918 126.954 18.7395 127.269 18.06C127.609 17.3563 128.167 16.7618 128.944 16.2764C129.72 15.7668 130.739 15.3786 132.001 15.1116C133.287 14.8204 134.889 14.6748 136.806 14.6748C136.806 13.7527 136.551 13.0368 136.042 12.5272C135.556 12.0176 134.901 11.7628 134.076 11.7628C133.518 11.7628 133.069 11.8599 132.729 12.054C132.414 12.2482 132.159 12.4544 131.965 12.6728C131.746 12.9397 131.601 13.2431 131.528 13.5828H127.342C127.439 12.8063 127.657 12.0783 127.997 11.3988C128.361 10.7194 128.847 10.1248 129.453 9.61521C130.06 9.10561 130.776 8.7052 131.601 8.414C132.45 8.09853 133.397 7.9408 134.44 7.9408ZM133.166 21.7729C134.258 21.7729 135.132 21.4574 135.787 20.8265C136.466 20.1713 136.806 19.3341 136.806 18.3149V17.5868C135.568 17.5868 134.574 17.6475 133.821 17.7688C133.069 17.8659 132.474 18.0236 132.038 18.2421C131.625 18.4362 131.346 18.6789 131.2 18.9701C131.055 19.2613 130.982 19.5889 130.982 19.9529C130.982 20.4139 131.188 20.8386 131.601 21.2269C132.013 21.5909 132.535 21.7729 133.166 21.7729Z" fill="white"/>
<path d="M154.082 7.9408C155.077 7.9408 155.987 8.11066 156.812 8.4504C157.637 8.76587 158.341 9.23908 158.923 9.87002C159.53 10.4767 159.991 11.2168 160.306 12.0904C160.646 12.964 160.816 13.9468 160.816 15.0388V24.8669H156.63V15.5848C156.63 14.4928 156.302 13.6192 155.647 12.964C155.016 12.2846 154.191 11.9448 153.172 11.9448C152.153 11.9448 151.316 12.2846 150.66 12.964C150.029 13.6192 149.714 14.4928 149.714 15.5848V24.8669H145.528V8.1228H148.622L149.35 9.76081C149.763 9.42108 150.211 9.11774 150.697 8.8508C151.109 8.6324 151.595 8.42613 152.153 8.232C152.735 8.03786 153.378 7.9408 154.082 7.9408Z" fill="white"/>
<path d="M163.56 8.1228H167.928L172.114 19.043L175.936 8.1228H180.305C179.115 11.1804 178.036 13.9469 177.065 16.4221C176.652 17.4899 176.24 18.5334 175.827 19.5526C175.439 20.5718 175.087 21.5061 174.772 22.3554C174.456 23.1805 174.189 23.8721 173.971 24.4302C173.752 24.9884 173.619 25.316 173.57 25.413C173.158 26.408 172.745 27.2452 172.333 27.9246C171.945 28.6284 171.52 29.1987 171.059 29.6355C170.598 30.0723 170.1 30.3877 169.566 30.5819C169.033 30.776 168.426 30.8731 167.746 30.8731C167.552 30.8731 167.358 30.8609 167.164 30.8367C166.994 30.8367 166.849 30.8245 166.727 30.8003C166.557 30.776 166.412 30.7396 166.29 30.6911V27.233C167.213 27.233 167.916 27.0268 168.402 26.6142C168.911 26.2017 169.299 25.68 169.566 25.049L169.93 24.139L163.56 8.1228Z" fill="white"/>
</g>
<defs>
<clipPath id="clip0_2_465">
<rect width="177" height="29" fill="white" transform="translate(3.49219 2.53125)"/>
</clipPath>
</defs>
</svg>
