<svg width="185" height="33" viewBox="0 0 185 33" fill="none" xmlns="http://www.w3.org/2000/svg">
<g clip-path="url(#clip0_2_478)">
<path d="M43.0485 14.0433C43.0485 12.1432 43.4728 10.446 44.3213 8.95176C45.1884 7.43908 46.3598 6.26767 47.8355 5.43754C49.3298 4.58896 50.9993 4.16467 52.844 4.16467C55.0023 4.16467 56.8932 4.71809 58.5166 5.82493C60.1399 6.93178 61.2744 8.4629 61.9201 10.4183H57.4651C57.0223 9.49596 56.3951 8.80418 55.5834 8.343C54.7902 7.88181 53.8678 7.65122 52.8163 7.65122C51.691 7.65122 50.6857 7.91871 49.8002 8.45368C48.9332 8.97021 48.2506 9.7081 47.7525 10.6674C47.2729 11.6266 47.0331 12.752 47.0331 14.0433C47.0331 15.3161 47.2729 16.4414 47.7525 17.4191C48.2506 18.3784 48.9332 19.1255 49.8002 19.6605C50.6857 20.177 51.691 20.4353 52.8163 20.4353C53.8678 20.4353 54.7902 20.2047 55.5834 19.7435C56.3951 19.2639 57.0223 18.5629 57.4651 17.6405H61.9201C61.2744 19.6144 60.1399 21.1547 58.5166 22.2616C56.9116 23.35 55.0208 23.8942 52.844 23.8942C50.9993 23.8942 49.3298 23.4791 47.8355 22.649C46.3598 21.8004 45.1884 20.629 44.3213 19.1347C43.4728 17.6405 43.0485 15.9434 43.0485 14.0433Z" fill="white"/>
<path d="M72.036 23.9771C70.5602 23.9771 69.232 23.6542 68.0514 23.0086C66.8707 22.3445 65.9392 21.4129 65.2566 20.2138C64.5925 19.0147 64.2604 17.6312 64.2604 16.0632C64.2604 14.4951 64.6017 13.1116 65.2843 11.9126C65.9853 10.7135 66.9353 9.7911 68.1344 9.14545C69.3335 8.48134 70.6709 8.14929 72.1467 8.14929C73.6225 8.14929 74.9599 8.48134 76.159 9.14545C77.3581 9.7911 78.2989 10.7135 78.9814 11.9126C79.6824 13.1116 80.0329 14.4951 80.0329 16.0632C80.0329 17.6312 79.6732 19.0147 78.9538 20.2138C78.2528 21.4129 77.2935 22.3445 76.076 23.0086C74.8769 23.6542 73.5302 23.9771 72.036 23.9771ZM72.036 20.6012C72.737 20.6012 73.3919 20.4352 74.0006 20.1031C74.6279 19.7526 75.1259 19.2361 75.4949 18.5536C75.8638 17.871 76.0483 17.0409 76.0483 16.0632C76.0483 14.6058 75.6609 13.4898 74.8861 12.715C74.1298 11.9218 73.1982 11.5252 72.0913 11.5252C70.9845 11.5252 70.0529 11.9218 69.2966 12.715C68.5587 13.4898 68.1897 14.6058 68.1897 16.0632C68.1897 17.5205 68.5495 18.6458 69.2689 19.439C70.0068 20.2138 70.9292 20.6012 72.036 20.6012Z" fill="white"/>
<path d="M101.912 8.17694C103.794 8.17694 105.307 8.75803 106.45 9.92021C107.612 11.064 108.194 12.6688 108.194 14.735V23.728H104.32V15.2607C104.32 14.0616 104.015 13.1485 103.406 12.5213C102.798 11.8756 101.968 11.5528 100.916 11.5528C99.8646 11.5528 99.0252 11.8756 98.398 12.5213C97.7893 13.1485 97.4849 14.0616 97.4849 15.2607V23.728H93.611V15.2607C93.611 14.0616 93.3066 13.1485 92.6978 12.5213C92.0891 11.8756 91.2589 11.5528 90.2074 11.5528C89.1375 11.5528 88.2889 11.8756 87.6617 12.5213C87.0529 13.1485 86.7485 14.0616 86.7485 15.2607V23.728H82.8746V8.39831H86.7485V10.2523C87.2466 9.60661 87.8831 9.09931 88.6578 8.73036C89.4511 8.36141 90.3181 8.17694 91.2589 8.17694C92.458 8.17694 93.5279 8.4352 94.4688 8.95173C95.4096 9.44981 96.1382 10.1693 96.6548 11.1101C97.1528 10.2246 97.8723 9.51437 98.8131 8.9794C99.7724 8.44443 100.805 8.17694 101.912 8.17694Z" fill="white"/>
<path d="M115.744 10.612C116.242 9.91101 116.924 9.32992 117.791 8.86874C118.677 8.38911 119.682 8.14929 120.807 8.14929C122.117 8.14929 123.298 8.47212 124.349 9.11778C125.419 9.76343 126.259 10.6858 126.867 11.8849C127.495 13.0655 127.808 14.4398 127.808 16.0078C127.808 17.5758 127.495 18.9686 126.867 20.1861C126.259 21.3852 125.419 22.3168 124.349 22.9809C123.298 23.645 122.117 23.9771 120.807 23.9771C119.682 23.9771 118.686 23.7465 117.819 23.2853C116.97 22.8241 116.279 22.243 115.744 21.542V31.0332H111.87V8.39833H115.744V10.612ZM123.851 16.0078C123.851 15.0855 123.658 14.2922 123.27 13.6281C122.901 12.9456 122.403 12.4291 121.776 12.0786C121.167 11.7281 120.503 11.5528 119.784 11.5528C119.083 11.5528 118.419 11.7373 117.791 12.1063C117.183 12.4567 116.684 12.9732 116.297 13.6558C115.928 14.3383 115.744 15.1408 115.744 16.0632C115.744 16.9855 115.928 17.788 116.297 18.4705C116.684 19.1531 117.183 19.6788 117.791 20.0478C118.419 20.3983 119.083 20.5735 119.784 20.5735C120.503 20.5735 121.167 20.3891 121.776 20.0201C122.403 19.6512 122.901 19.1254 123.27 18.4429C123.658 17.7603 123.851 16.9486 123.851 16.0078Z" fill="white"/>
<path d="M129.627 16.0078C129.627 14.4582 129.932 13.0839 130.54 11.8849C131.167 10.6858 132.007 9.76343 133.058 9.11778C134.128 8.47212 135.318 8.14929 136.628 8.14929C137.772 8.14929 138.768 8.37988 139.616 8.84106C140.483 9.30225 141.175 9.88334 141.692 10.5843V8.39833H145.593V23.728H141.692V21.4867C141.194 22.2061 140.502 22.8057 139.616 23.2853C138.749 23.7465 137.744 23.9771 136.6 23.9771C135.309 23.9771 134.128 23.645 133.058 22.9809C132.007 22.3168 131.167 21.3852 130.54 20.1861C129.932 18.9686 129.627 17.5758 129.627 16.0078ZM141.692 16.0632C141.692 15.1223 141.507 14.3199 141.138 13.6558C140.769 12.9732 140.271 12.4567 139.644 12.1063C139.017 11.7373 138.344 11.5528 137.624 11.5528C136.905 11.5528 136.241 11.7281 135.632 12.0786C135.023 12.4291 134.525 12.9456 134.138 13.6281C133.769 14.2922 133.584 15.0855 133.584 16.0078C133.584 16.9302 133.769 17.7419 134.138 18.4429C134.525 19.1254 135.023 19.6512 135.632 20.0201C136.259 20.3891 136.923 20.5735 137.624 20.5735C138.344 20.5735 139.017 20.3983 139.644 20.0478C140.271 19.6788 140.769 19.1623 141.138 18.4982C141.507 17.8157 141.692 17.004 141.692 16.0632Z" fill="white"/>
<path d="M157.872 8.17694C159.698 8.17694 161.174 8.75803 162.299 9.92021C163.425 11.064 163.987 12.6688 163.987 14.735V23.728H160.113V15.2607C160.113 14.0432 159.809 13.1116 159.2 12.466C158.591 11.8018 157.761 11.4698 156.71 11.4698C155.64 11.4698 154.791 11.8018 154.164 12.466C153.555 13.1116 153.251 14.0432 153.251 15.2607V23.728H149.377V8.39831H153.251V10.3076C153.767 9.6435 154.422 9.12698 155.215 8.75803C156.027 8.37064 156.913 8.17694 157.872 8.17694Z" fill="white"/>
<path d="M182.337 8.39832L172.846 30.9778H168.723L172.043 23.3406L165.9 8.39832H170.245L174.201 19.107L178.214 8.39832H182.337Z" fill="white"/>
<path d="M14.0032 30.8288C8.08841 30.8288 3.3125 26.0162 3.3125 20.1381C3.3125 14.2601 8.08841 9.44751 14.0032 9.44751C19.8812 9.44751 24.6939 14.2234 24.6939 20.1381C24.6571 26.0162 19.8812 30.8288 14.0032 30.8288Z" fill="#0328EE"/>
<path d="M29.8052 2.61487H15.7248C14.7739 2.61487 14.0031 3.38571 14.0031 4.3366V18.4171C14.0031 19.368 14.7739 20.1388 15.7248 20.1388H29.8052C30.7561 20.1388 31.527 19.368 31.527 18.4171V4.3366C31.527 3.38571 30.7561 2.61487 29.8052 2.61487Z" fill="white"/>
</g>
<defs>
<clipPath id="clip0_2_478">
<rect width="180" height="29" fill="white" transform="translate(2.5 2.53125)"/>
</clipPath>
</defs>
</svg>
