<svg width="184" height="33" viewBox="0 0 184 33" fill="none" xmlns="http://www.w3.org/2000/svg">
<g clip-path="url(#clip0_2_490)">
<path d="M40.9915 14.4083C40.9915 12.5083 41.4157 10.8111 42.2643 9.31686C43.1313 7.80418 44.3028 6.63278 45.7785 5.80265C47.2728 4.95407 48.9423 4.52979 50.787 4.52979C52.9453 4.52979 54.8362 5.08321 56.4595 6.19005C58.0829 7.29689 59.2174 8.82802 59.8631 10.7834H55.4081C54.9653 9.86107 54.3381 9.16929 53.5264 8.70811C52.7332 8.24693 51.8108 8.01632 50.7593 8.01632C49.634 8.01632 48.6287 8.28382 47.7432 8.81879C46.8762 9.33532 46.1936 10.0732 45.6955 11.0325C45.2159 11.9917 44.9761 13.117 44.9761 14.4083C44.9761 15.6812 45.2159 16.8065 45.6955 17.7842C46.1936 18.7435 46.8762 19.4906 47.7432 20.0256C48.6287 20.5421 49.634 20.8003 50.7593 20.8003C51.8108 20.8003 52.7332 20.5698 53.5264 20.1086C54.3381 19.6289 54.9653 18.9279 55.4081 18.0056H59.8631C59.2174 19.9794 58.0829 21.5198 56.4595 22.6266C54.8546 23.715 52.9638 24.2592 50.787 24.2592C48.9423 24.2592 47.2728 23.8442 45.7785 23.014C44.3028 22.1654 43.1313 20.994 42.2643 19.4998C41.4157 18.0056 40.9915 16.3084 40.9915 14.4083Z" fill="white"/>
<path d="M69.979 24.3422C68.5032 24.3422 67.175 24.0194 65.9944 23.3737C64.8137 22.7096 63.8821 21.7781 63.1996 20.579C62.5355 19.3799 62.2034 17.9963 62.2034 16.4283C62.2034 14.8603 62.5447 13.4767 63.2273 12.2777C63.9283 11.0786 64.8783 10.1562 66.0774 9.51056C67.2765 8.84645 68.6139 8.5144 70.0897 8.5144C71.5655 8.5144 72.9029 8.84645 74.102 9.51056C75.3011 10.1562 76.2419 11.0786 76.9244 12.2777C77.6254 13.4767 77.9759 14.8603 77.9759 16.4283C77.9759 17.9963 77.6162 19.3799 76.8967 20.579C76.1957 21.7781 75.2365 22.7096 74.019 23.3737C72.8199 24.0194 71.4732 24.3422 69.979 24.3422ZM69.979 20.9664C70.68 20.9664 71.3349 20.8003 71.9436 20.4683C72.5708 20.1178 73.0689 19.6013 73.4379 18.9187C73.8068 18.2362 73.9913 17.406 73.9913 16.4283C73.9913 14.971 73.6039 13.8549 72.8291 13.0801C72.0728 12.2869 71.1412 11.8903 70.0343 11.8903C68.9275 11.8903 67.9959 12.2869 67.2396 13.0801C66.5017 13.8549 66.1327 14.971 66.1327 16.4283C66.1327 17.8857 66.4924 19.011 67.2119 19.8042C67.9498 20.579 68.8722 20.9664 69.979 20.9664Z" fill="white"/>
<path d="M99.8552 8.54205C101.737 8.54205 103.25 9.12314 104.393 10.2853C105.555 11.4291 106.137 13.034 106.137 15.1001V24.0932H102.263V15.6259C102.263 14.4268 101.958 13.5136 101.35 12.8864C100.741 12.2408 99.9106 11.9179 98.8591 11.9179C97.8076 11.9179 96.9682 12.2408 96.341 12.8864C95.7323 13.5136 95.4279 14.4268 95.4279 15.6259V24.0932H91.5539V15.6259C91.5539 14.4268 91.2496 13.5136 90.6408 12.8864C90.032 12.2408 89.2019 11.9179 88.1504 11.9179C87.0805 11.9179 86.2319 12.2408 85.6047 12.8864C84.9959 13.5136 84.6915 14.4268 84.6915 15.6259V24.0932H80.8176V8.76342H84.6915V10.6174C85.1896 9.97172 85.8261 9.46442 86.6008 9.09547C87.3941 8.72653 88.2611 8.54205 89.2019 8.54205C90.401 8.54205 91.4709 8.80032 92.4118 9.31684C93.3526 9.81492 94.0812 10.5344 94.5978 11.4752C95.0958 10.5897 95.8153 9.87949 96.7561 9.34451C97.7154 8.80954 98.7484 8.54205 99.8552 8.54205Z" fill="white"/>
<path d="M113.687 10.9771C114.185 10.2761 114.867 9.69503 115.734 9.23385C116.62 8.75422 117.625 8.5144 118.75 8.5144C120.06 8.5144 121.241 8.83723 122.292 9.48289C123.362 10.1285 124.202 11.0509 124.81 12.25C125.438 13.4306 125.751 14.805 125.751 16.373C125.751 17.941 125.438 19.3338 124.81 20.5513C124.202 21.7504 123.362 22.682 122.292 23.3461C121.241 24.0102 120.06 24.3422 118.75 24.3422C117.625 24.3422 116.629 24.1116 115.762 23.6505C114.913 23.1893 114.222 22.6082 113.687 21.9072V31.3983H109.813V8.76344H113.687V10.9771ZM121.794 16.373C121.794 15.4506 121.601 14.6574 121.213 13.9933C120.844 13.3107 120.346 12.7942 119.719 12.4437C119.11 12.0932 118.446 11.9179 117.727 11.9179C117.026 11.9179 116.362 12.1024 115.734 12.4714C115.126 12.8219 114.627 13.3384 114.24 14.0209C113.871 14.7035 113.687 15.506 113.687 16.4283C113.687 17.3507 113.871 18.1531 114.24 18.8357C114.627 19.5183 115.126 20.044 115.734 20.413C116.362 20.7634 117.026 20.9387 117.727 20.9387C118.446 20.9387 119.11 20.7542 119.719 20.3853C120.346 20.0163 120.844 19.4906 121.213 18.808C121.601 18.1255 121.794 17.3138 121.794 16.373Z" fill="white"/>
<path d="M127.57 16.373C127.57 14.8234 127.875 13.4491 128.483 12.25C129.11 11.0509 129.95 10.1285 131.001 9.48289C132.071 8.83723 133.261 8.5144 134.571 8.5144C135.715 8.5144 136.711 8.74499 137.559 9.20618C138.426 9.66736 139.118 10.2485 139.635 10.9495V8.76344H143.536V24.0932H139.635V21.8518C139.137 22.5713 138.445 23.1708 137.559 23.6505C136.692 24.1116 135.687 24.3422 134.543 24.3422C133.252 24.3422 132.071 24.0102 131.001 23.3461C129.95 22.682 129.11 21.7504 128.483 20.5513C127.875 19.3338 127.57 17.941 127.57 16.373ZM139.635 16.4283C139.635 15.4875 139.45 14.685 139.081 14.0209C138.712 13.3384 138.214 12.8219 137.587 12.4714C136.96 12.1024 136.287 11.9179 135.567 11.9179C134.848 11.9179 134.184 12.0932 133.575 12.4437C132.966 12.7942 132.468 13.3107 132.081 13.9933C131.712 14.6574 131.527 15.4506 131.527 16.373C131.527 17.2953 131.712 18.107 132.081 18.808C132.468 19.4906 132.966 20.0163 133.575 20.3853C134.202 20.7542 134.866 20.9387 135.567 20.9387C136.287 20.9387 136.96 20.7634 137.587 20.413C138.214 20.044 138.712 19.5275 139.081 18.8634C139.45 18.1808 139.635 17.3691 139.635 16.4283Z" fill="white"/>
<path d="M155.815 8.54205C157.641 8.54205 159.117 9.12314 160.242 10.2853C161.368 11.4291 161.93 13.034 161.93 15.1001V24.0932H158.056V15.6259C158.056 14.4083 157.752 13.4767 157.143 12.8311C156.534 12.167 155.704 11.8349 154.653 11.8349C153.583 11.8349 152.734 12.167 152.107 12.8311C151.498 13.4767 151.194 14.4083 151.194 15.6259V24.0932H147.32V8.76342H151.194V10.6727C151.71 10.0086 152.365 9.49209 153.158 9.12314C153.97 8.73575 154.856 8.54205 155.815 8.54205Z" fill="white"/>
<path d="M180.28 8.76343L170.789 31.343H166.666L169.986 23.7058L163.843 8.76343H168.187L172.144 19.4721L176.157 8.76343H180.28Z" fill="white"/>
<path d="M5.59822 32.424H2.83667V13.0858H13.1956V24.8267C13.1956 29.022 9.79597 32.424 5.59822 32.424Z" fill="#0328EE"/>
<path d="M27.0081 13.0858C27.0081 6.41224 21.5983 1 14.9223 1C14.336 1 13.7596 1.04434 13.1954 1.12564V13.0858H27.0081Z" fill="#0328EE"/>
<path d="M23.0948 25.826C25.744 24.745 27.0153 21.7212 25.9344 19.072C24.8534 16.4228 21.8295 15.1515 19.1803 16.2324C16.5311 17.3134 15.2598 20.3373 16.3408 22.9865C17.4218 25.6357 20.4457 26.907 23.0948 25.826Z" fill="white"/>
</g>
<defs>
<clipPath id="clip0_2_490">
<rect width="179" height="32" fill="white" transform="translate(2 1)"/>
</clipPath>
</defs>
</svg>
