<svg width="184" height="33" viewBox="0 0 184 33" fill="none" xmlns="http://www.w3.org/2000/svg">
<g clip-path="url(#clip0_2_438)">
<g clip-path="url(#clip1_2_438)">
<path d="M64.4803 23.7079C63.0128 23.7079 61.7193 23.3959 60.5993 22.7719C59.4795 22.1479 58.5914 21.2779 57.9348 20.1623C57.2977 19.0466 56.9791 17.7701 56.9791 16.333C56.9791 14.8958 57.2977 13.6193 57.9348 12.5037C58.5914 11.388 59.4795 10.5181 60.5993 9.89405C61.7193 9.27003 63.0128 8.95801 64.4803 8.95801C66.3146 8.95801 67.8592 9.43076 69.1142 10.3763C70.3693 11.3029 71.1705 12.5887 71.5181 14.2339H67.6083C67.4151 13.5531 67.029 13.0236 66.4497 12.6455C65.8898 12.2484 65.2237 12.0498 64.4513 12.0498C63.428 12.0498 62.5592 12.428 61.8448 13.1844C61.1304 13.9408 60.7732 14.9903 60.7732 16.333C60.7732 17.6756 61.1304 18.7251 61.8448 19.4815C62.5592 20.2379 63.428 20.6161 64.4513 20.6161C65.2237 20.6161 65.8898 20.427 66.4497 20.0488C67.029 19.6706 67.4151 19.1317 67.6083 18.432H71.5181C71.1705 20.0204 70.3693 21.2968 69.1142 22.2613C67.8592 23.2257 66.3146 23.7079 64.4803 23.7079Z" fill="white"/>
<path d="M81.1223 23.7079C79.7321 23.7079 78.4771 23.3959 77.3571 22.7719C76.2566 22.1479 75.3781 21.2874 74.7216 20.1906C74.0844 19.0749 73.7659 17.789 73.7659 16.333C73.7659 14.8769 74.0941 13.6004 74.7506 12.5037C75.407 11.388 76.2856 10.5181 77.3862 9.89405C78.506 9.27003 79.761 8.95801 81.1512 8.95801C82.5221 8.95801 83.7578 9.27003 84.8584 9.89405C85.9782 10.5181 86.8568 11.388 87.494 12.5037C88.1504 13.6004 88.4787 14.8769 88.4787 16.333C88.4787 17.789 88.1504 19.0749 87.494 20.1906C86.8568 21.2874 85.9782 22.1479 84.8584 22.7719C83.7386 23.3959 82.4931 23.7079 81.1223 23.7079ZM81.1223 20.5593C82.0877 20.5593 82.9276 20.2095 83.642 19.5098C84.3564 18.7913 84.7136 17.7323 84.7136 16.333C84.7136 14.9336 84.3564 13.8841 83.642 13.1844C82.9276 12.4658 82.0973 12.1065 81.1512 12.1065C80.1665 12.1065 79.317 12.4658 78.6026 13.1844C77.9075 13.8841 77.5599 14.9336 77.5599 16.333C77.5599 17.7323 77.9075 18.7913 78.6026 19.5098C79.317 20.2095 80.1569 20.5593 81.1223 20.5593Z" fill="white"/>
<path d="M91.214 23.3675V9.29838H94.4864L94.8049 11.1989C95.269 10.5181 95.8769 9.97915 96.6303 9.58204C97.402 9.16602 98.2909 8.95801 99.2942 8.95801C101.515 8.95801 103.089 9.7995 104.015 11.4825C104.537 10.7072 105.232 10.0926 106.1 9.63877C106.989 9.18492 107.954 8.95801 108.997 8.95801C110.87 8.95801 112.308 9.5064 113.312 10.6032C114.316 11.7 114.818 13.3073 114.818 15.4252V23.3675H111.111V15.7657C111.111 14.5554 110.87 13.6288 110.387 12.9859C109.924 12.3429 109.2 12.0214 108.215 12.0214C107.211 12.0214 106.4 12.3807 105.782 13.0993C105.183 13.8179 104.885 14.8202 104.885 16.106V23.3675H101.177V15.7657C101.177 14.5554 100.936 13.6288 100.453 12.9859C99.9707 12.3429 99.2273 12.0214 98.2231 12.0214C97.2381 12.0214 96.4371 12.3807 95.8192 13.0993C95.2205 13.8179 94.9212 14.8202 94.9212 16.106V23.3675H91.214Z" fill="white"/>
<path d="M117.758 29.6079V9.29838H121.06L121.466 11.3123C121.929 10.6883 122.538 10.1399 123.29 9.66714C124.063 9.19438 125.057 8.95801 126.273 8.95801C127.625 8.95801 128.832 9.27948 129.894 9.92242C130.956 10.5654 131.795 11.4447 132.413 12.5604C133.031 13.6761 133.341 14.9431 133.341 16.3613C133.341 17.7796 133.031 19.0466 132.413 20.1623C131.795 21.259 130.956 22.1289 129.894 22.7719C128.832 23.3959 127.625 23.7079 126.273 23.7079C125.192 23.7079 124.246 23.5094 123.435 23.1123C122.625 22.7151 121.967 22.1573 121.466 21.4387V29.6079H117.758ZM125.492 20.531C126.669 20.531 127.645 20.1433 128.417 19.368C129.189 18.5928 129.575 17.5905 129.575 16.3613C129.575 15.1322 129.189 14.1205 128.417 13.3262C127.645 12.532 126.669 12.1349 125.492 12.1349C124.294 12.1349 123.309 12.532 122.538 13.3262C121.784 14.1016 121.408 15.1038 121.408 16.333C121.408 17.5621 121.784 18.5738 122.538 19.368C123.309 20.1433 124.294 20.531 125.492 20.531Z" fill="white"/>
<path d="M141.026 23.7079C139.79 23.7079 138.775 23.5188 137.985 23.1406C137.193 22.7435 136.604 22.2234 136.218 21.5805C135.831 20.9376 135.638 20.2284 135.638 19.4531C135.638 18.1483 136.159 17.0893 137.202 16.2762C138.244 15.4631 139.809 15.0565 141.894 15.0565H145.543V14.7162C145.543 13.7517 145.263 13.0426 144.704 12.5887C144.143 12.1349 143.449 11.908 142.618 11.908C141.865 11.908 141.209 12.0876 140.648 12.4469C140.089 12.7873 139.741 13.2979 139.606 13.9787H135.986C136.082 12.9575 136.43 12.0687 137.029 11.3123C137.647 10.5559 138.438 9.97915 139.403 9.58204C140.369 9.16602 141.45 8.95801 142.647 8.95801C144.694 8.95801 146.306 9.45913 147.484 10.4614C148.662 11.4636 149.251 12.8819 149.251 14.7162V23.3675H146.093L145.746 21.0983C145.322 21.8547 144.723 22.4788 143.95 22.9704C143.198 23.4621 142.222 23.7079 141.026 23.7079ZM141.865 20.8713C142.927 20.8713 143.748 20.531 144.327 19.8503C144.925 19.1695 145.302 18.328 145.456 17.3257H142.3C141.315 17.3257 140.61 17.5054 140.185 17.8647C139.76 18.2051 139.548 18.6305 139.548 19.1411C139.548 19.6895 139.76 20.115 140.185 20.4175C140.61 20.7201 141.17 20.8713 141.865 20.8713Z" fill="white"/>
<path d="M152.209 23.3675V9.29838H155.482L155.771 11.6811C156.215 10.849 156.852 10.1872 157.683 9.6955C158.532 9.20383 159.527 8.95801 160.666 8.95801C162.442 8.95801 163.823 9.5064 164.807 10.6032C165.792 11.7 166.285 13.3073 166.285 15.4252V23.3675H162.577V15.7657C162.577 14.5554 162.327 13.6288 161.824 12.9859C161.322 12.3429 160.541 12.0214 159.479 12.0214C158.436 12.0214 157.576 12.3807 156.901 13.0993C156.244 13.8179 155.916 14.8202 155.916 16.106V23.3675H152.209Z" fill="white"/>
<path d="M170.565 29.6078L173.896 22.4314H173.027L167.437 9.29834H171.463L175.488 19.1978L179.688 9.29834H183.627L174.504 29.6078H170.565Z" fill="white"/>
<path d="M14.7259 27.1624C13.7573 28.111 12.1865 28.1097 11.2196 27.1594L1.96361 18.0631C0.999018 17.1151 1.00036 15.5812 1.96661 14.6349L11.2226 5.56974C12.1888 4.62341 13.755 4.62209 14.7229 5.5668L24.0107 14.632C24.981 15.579 24.9823 17.1174 24.0137 18.066L14.7259 27.1624Z" fill="#0328EE"/>
<path d="M27.5205 27.1585C26.5537 28.1087 24.9828 28.1101 24.0142 27.1614L14.7264 18.0651C13.7578 17.1165 13.7592 15.5781 14.7294 14.631L24.0172 5.56588C24.9851 4.62118 26.5513 4.62249 27.5175 5.56882L36.7735 14.634C37.7398 15.5803 37.7411 17.1142 36.7765 18.0621L27.5205 27.1585Z" fill="white"/>
<path d="M37.0045 27.1604C36.0368 28.1096 34.4662 28.1096 33.4984 27.1604L24.2249 18.0638C23.2582 17.1155 23.2595 15.5791 24.2279 14.6324L33.5014 5.56698C34.4685 4.62163 36.0345 4.62163 37.0016 5.56698L46.275 14.6324C47.2434 15.5791 47.2448 17.1155 46.278 18.0638L37.0045 27.1604Z" fill="#0328EE"/>
</g>
</g>
<defs>
<clipPath id="clip0_2_438">
<rect width="184" height="33" fill="white"/>
</clipPath>
<clipPath id="clip1_2_438">
<rect width="184" height="26" fill="white" transform="translate(0.217941 3.78125)"/>
</clipPath>
</defs>
</svg>
