<svg width="643" height="585" viewBox="0 0 643 585" fill="none" xmlns="http://www.w3.org/2000/svg">
<path d="M86.1813 24.7055C86.1813 11.0605 97.2428 -0.000938416 110.888 -0.000938416H860.772C874.417 -0.000938416 885.479 11.0605 885.479 24.7056V545.364H86.1813V24.7055Z" fill="#23213B"/>
<path d="M116.769 579.812C116.502 580.477 115.651 581.886 114.373 582.206C114.24 583.137 113.654 584.998 112.377 584.998H57.6781C56.4005 584.998 55.8149 583.137 55.6818 582.206C54.4042 581.886 53.5524 580.477 53.2863 579.812H116.769Z" fill="#23213B"/>
<path d="M918.042 579.812C917.775 580.477 916.924 581.886 915.646 582.206C915.513 583.137 914.927 584.998 913.65 584.998H858.951C857.674 584.998 857.088 583.137 856.955 582.206C855.677 581.886 854.826 580.477 854.559 579.812H918.042Z" fill="#23213B"/>
<path d="M971.004 548.698V544.971H0.00402832V548.698C0.00402832 559.589 0.00402832 565.034 2.09283 569.194C3.9302 572.853 6.86197 575.828 10.468 577.693C14.5675 579.812 19.9341 579.812 30.6672 579.812H940.341C951.074 579.812 956.441 579.812 960.54 577.693C964.146 575.828 967.078 572.853 968.915 569.194C971.004 565.034 971.004 559.589 971.004 548.698Z" fill="#1C1B2D"/>
<path d="M401.294 544.971H570.181C570.181 552.242 564.286 558.137 557.015 558.137H414.46C407.189 558.137 401.294 552.242 401.294 544.971Z" fill="#353447"/>
<path d="M110.195 13.8086C104.006 13.8086 98.9886 18.8063 98.9886 24.9712V514.531H873.031V24.9712C873.031 18.8063 868.014 13.8086 861.825 13.8086H526.287C525.197 13.8086 524.313 14.6916 524.313 15.7808V23.6694C524.313 25.4847 522.84 26.9563 521.024 26.9563H450.633C448.453 26.9563 446.686 25.1904 446.686 23.012V15.7808C446.686 14.6916 445.802 13.8086 444.712 13.8086H110.195Z" fill="#353447"/>
</svg>
