<svg width="502" height="592" viewBox="0 0 502 592" fill="none" xmlns="http://www.w3.org/2000/svg">
<rect x="1.991" y="23.3728" width="262.841" height="545.354" rx="41.1643" transform="rotate(-5.06 1.991 23.3728)" fill="#1C1B2D"/>
<rect x="6.23778" y="26.0105" width="255.846" height="538.349" rx="37.6241" transform="rotate(-5.06 6.23778 26.0105)" fill="#23213B"/>
<rect x="11.6498" y="155.12" width="1.99879" height="38.0246" rx="0.884738" transform="rotate(-5.06 11.6498 155.12)" fill="#1C1B2D"/>
<rect x="15.8861" y="202.964" width="1.99879" height="38.0246" rx="0.884738" transform="rotate(-5.06 15.8861 202.964)" fill="#1C1B2D"/>
<rect x="8.47258" y="119.237" width="1.99879" height="19.0123" rx="0.884738" transform="rotate(-5.06 8.47258 119.237)" fill="#1C1B2D"/>
<rect x="277.752" y="157.677" width="1.99879" height="60.0389" rx="0.884738" transform="rotate(-5.06 277.752 157.677)" fill="#1C1B2D"/>
<rect x="13.9123" y="33.3674" width="241.854" height="523.339" rx="31.0294" transform="rotate(-5.06 13.9123 33.3674)" fill="#353447"/>
<rect x="99.0595" y="31.8555" width="70.9572" height="21.0136" rx="10.5068" transform="rotate(-5.06 99.0595 31.8555)" fill="#1C1B2D"/>
<rect x="236.995" y="30.6748" width="262.841" height="545.354" rx="41.1643" transform="rotate(3.61 236.995 30.6748)" fill="#1C1B2D"/>
<rect x="240.795" y="33.9226" width="255.846" height="538.349" rx="37.6241" transform="rotate(3.61 240.795 33.9226)" fill="#23213B"/>
<rect x="226.683" y="162.373" width="1.99879" height="38.0246" rx="0.884738" transform="rotate(3.61 226.683 162.373)" fill="#1C1B2D"/>
<rect x="223.659" y="210.308" width="1.99879" height="38.0246" rx="0.884738" transform="rotate(3.61 223.659 210.308)" fill="#1C1B2D"/>
<rect x="228.951" y="126.421" width="1.99879" height="19.0123" rx="0.884738" transform="rotate(3.61 228.951 126.421)" fill="#1C1B2D"/>
<rect x="489.36" y="205.013" width="1.99879" height="60.0389" rx="0.884738" transform="rotate(3.61 489.36 205.013)" fill="#1C1B2D"/>
<rect x="247.273" y="42.3523" width="241.854" height="523.339" rx="31.0294" transform="rotate(3.61 247.273 42.3523)" fill="#353447"/>
<rect x="331.675" y="53.6931" width="70.9572" height="21.0136" rx="10.5068" transform="rotate(3.61 331.675 53.6931)" fill="#1C1B2D"/>
</svg>
