<svg width="454" height="416" viewBox="0 0 454 416" fill="none" xmlns="http://www.w3.org/2000/svg">
<g clip-path="url(#clip0_16_980)">
<path fill-rule="evenodd" clip-rule="evenodd" d="M449.614 56.3811C449.614 25.2423 424.37 0.00292969 393.223 0.00292969H56.388C25.2409 0.00292969 -0.00305176 25.2423 -0.00305176 56.3811V878.623C-0.00305176 909.762 25.2409 935.001 56.388 935.001H393.223C424.37 935.001 449.614 909.762 449.614 878.623V56.3811ZM449.618 333.941H451.851C453.037 333.941 453.998 334.903 453.998 336.089V397.207C453.998 398.393 453.037 399.355 451.851 399.355H449.618V333.941ZM451.851 158.959H449.618V278.643H451.851C453.037 278.643 453.998 277.682 453.998 276.496V161.106C453.998 159.92 453.037 158.959 451.851 158.959Z" fill="#1C1B2D"/>
<path fill-rule="evenodd" clip-rule="evenodd" d="M440.21 56.3783V878.62C440.21 904.555 419.17 925.593 393.223 925.593H56.388C30.4406 925.593 9.40109 904.555 9.40109 878.62V56.3783C9.40109 30.4432 30.4406 9.40576 56.388 9.40576H393.223C419.17 9.40576 440.21 30.4432 440.21 56.3783Z" fill="#23213B"/>
<path fill-rule="evenodd" clip-rule="evenodd" d="M430.551 56.379V878.621C430.551 899.213 413.837 915.91 393.226 915.91H56.3917C35.7814 915.91 19.0667 899.213 19.0667 878.621V56.379C19.0667 35.7868 35.7814 19.0903 56.3917 19.0903H393.226C413.837 19.0903 430.551 35.7868 430.551 56.379Z" fill="#353447"/>
<path d="M224.813 46.8571C230.704 46.8571 235.48 42.0808 235.48 36.1888C235.48 30.2969 230.704 25.5205 224.813 25.5205C218.922 25.5205 214.146 30.2969 214.146 36.1888C214.146 42.0808 218.922 46.8571 224.813 46.8571Z" fill="#1C1B2D"/>
</g>
<defs>
<clipPath id="clip0_16_980">
<rect width="454" height="935" fill="white"/>
</clipPath>
</defs>
</svg>
